<svg xmlns="http://www.w3.org/2000/svg" xmlns:xlink="http://www.w3.org/1999/xlink" x="0" y="0" width="701.3333740234375" height="311.3333435058594" style="
        width:701.3333740234375px;
        height:311.3333435058594px;
        background: transparent;
        fill: none;
">
        <svg xmlns="http://www.w3.org/2000/svg"/>
        
        <svg xmlns="http://www.w3.org/2000/svg" class="role-diagram-draw-area" style="overflow: visible;"><g class="shapes-region" style="stroke: black; fill: none;"><g class="composite-shape" data-amt="diagram/shapes/plot" transform="matrix(1,0,0,1,20,10)"><g><g><g class="test-xgi"><line x1="49.999999999999964" y1="0" x2="49.999999999999964" y2="270" fill="none" stroke="#c3c3c3" stroke-width="0.5"/><line x1="114.99999999999999" y1="0" x2="114.99999999999999" y2="270" fill="none" stroke="#c3c3c3" stroke-width="0.5"/><line x1="179.99999999999997" y1="0" x2="179.99999999999997" y2="270" fill="none" stroke="#c3c3c3" stroke-width="0.5"/><line x1="245" y1="0" x2="245" y2="270" fill="none" stroke="#c3c3c3" stroke-width="0.5"/><line x1="310" y1="0" x2="310" y2="270" fill="none" stroke="#c3c3c3" stroke-width="0.5"/><line x1="375" y1="0" x2="375" y2="270" fill="none" stroke="#c3c3c3" stroke-width="0.5"/><line x1="439.99999999999994" y1="0" x2="439.99999999999994" y2="270" fill="none" stroke="#c3c3c3" stroke-width="0.5"/><line x1="504.99999999999994" y1="0" x2="504.99999999999994" y2="270" fill="none" stroke="#c3c3c3" stroke-width="0.5"/><line x1="570" y1="0" x2="570" y2="270" fill="none" stroke="#c3c3c3" stroke-width="0.5"/></g><g class="test-ygi"><line x1="0" y1="260" x2="620" y2="260" fill="none" stroke="#c3c3c3" stroke-width="0.5"/><line x1="0" y1="195" x2="620" y2="195" fill="none" stroke="#c3c3c3" stroke-width="0.5"/><line x1="0" y1="130" x2="620" y2="130" fill="none" stroke="#c3c3c3" stroke-width="0.5"/><line x1="0" y1="65" x2="620" y2="65" fill="none" stroke="#c3c3c3" stroke-width="0.5"/></g></g><g><g class="test-xti" style="font-family: Asana-Math, Asana;"><line x1="0" y1="130" x2="616" y2="130" fill="none" stroke="rgb(255,0,0)" stroke-opacity="1" stroke-width="1"/><line x1="49.999999999999964" y1="126" x2="49.999999999999964" y2="134" fill="none" stroke="rgb(255,0,0)" stroke-opacity="1" stroke-width="1"/><line x1="114.99999999999999" y1="126" x2="114.99999999999999" y2="134" fill="none" stroke="rgb(255,0,0)" stroke-opacity="1" stroke-width="1"/><line x1="179.99999999999997" y1="126" x2="179.99999999999997" y2="134" fill="none" stroke="rgb(255,0,0)" stroke-opacity="1" stroke-width="1"/><line x1="245" y1="126" x2="245" y2="134" fill="none" stroke="rgb(255,0,0)" stroke-opacity="1" stroke-width="1"/><line x1="375" y1="126" x2="375" y2="134" fill="none" stroke="rgb(255,0,0)" stroke-opacity="1" stroke-width="1"/><line x1="439.99999999999994" y1="126" x2="439.99999999999994" y2="134" fill="none" stroke="rgb(255,0,0)" stroke-opacity="1" stroke-width="1"/><line x1="504.99999999999994" y1="126" x2="504.99999999999994" y2="134" fill="none" stroke="rgb(255,0,0)" stroke-opacity="1" stroke-width="1"/><line x1="570" y1="126" x2="570" y2="134" fill="none" stroke="rgb(255,0,0)" stroke-opacity="1" stroke-width="1"/><path d="M611,126.4 L619,130 L611,133.6 Z" stroke="none" stroke-width="1" fill="rgb(255,0,0)" fill-opacity="1"/></g><g class="test-yti" style="font-family: Asana-Math, Asana;"><line x1="310" y1="4" x2="310" y2="270" fill="none" stroke="rgb(0,255,62)" stroke-opacity="1" stroke-width="1"/><line x1="306" y1="260" x2="314" y2="260" fill="none" stroke="rgb(0,255,62)" stroke-opacity="1" stroke-width="1"/><line x1="306" y1="195" x2="314" y2="195" fill="none" stroke="rgb(0,255,62)" stroke-opacity="1" stroke-width="1"/><line x1="306" y1="65" x2="314" y2="65" fill="none" stroke="rgb(0,255,62)" stroke-opacity="1" stroke-width="1"/><path d="M306.4,9 L310,1 L313.6,9 Z" stroke="none" stroke-width="1" fill="rgb(0,255,62)" fill-opacity="1"/></g><g class="test-plot-expression"><defs><clipPath id="cpvvirdfwnedg-full-view"><rect x="1" y="1" width="618" height="268"/></clipPath></defs><g clip-path="url(#cpvvirdfwnedg-full-view)"><path d=" M0.00,91.01 L0.56,89.89 L1.13,88.79 L1.69,87.71 L2.26,86.65 L2.82,85.61 L3.38,84.59 L3.95,83.59 L4.51,82.61 L5.08,81.66 L5.64,80.73 L6.21,79.82 L6.77,78.94 L7.33,78.08 L7.90,77.24 L8.46,76.43 L9.03,75.64 L9.59,74.88 L10.15,74.15 L10.72,73.44 L11.28,72.76 L11.85,72.10 L12.41,71.48 L12.98,70.88 L13.54,70.30 L14.10,69.76 L14.67,69.24 L15.23,68.76 L15.80,68.30 L16.36,67.87 L16.92,67.47 L17.49,67.10 L18.05,66.76 L18.62,66.45 L19.18,66.17 L19.75,65.92 L20.31,65.70 L20.87,65.50 L21.44,65.34 L22.00,65.21 L22.57,65.12 L23.13,65.05 L23.69,65.01 L24.26,65.00 L24.82,65.02 L25.39,65.08 L25.95,65.16 L26.52,65.28 L27.08,65.42 L27.64,65.60 L28.21,65.80 L28.77,66.04 L29.34,66.31 L29.90,66.60 L30.46,66.93 L31.03,67.28 L31.59,67.67 L32.16,68.08 L32.72,68.53 L33.28,69.00 L33.85,69.50 L34.41,70.03 L34.98,70.59 L35.54,71.18 L36.11,71.79 L36.67,72.43 L37.23,73.10 L37.80,73.80 L38.36,74.52 L38.93,75.26 L39.49,76.04 L40.05,76.84 L40.62,77.66 L41.18,78.51 L41.75,79.38 L42.31,80.28 L42.88,81.20 L43.44,82.14 L44.00,83.11 L44.57,84.10 L45.13,85.10 L45.70,86.13 L46.26,87.19 L46.82,88.26 L47.39,89.35 L47.95,90.46 L48.52,91.59 L49.08,92.73 L49.65,93.90 L50.21,95.08 L50.77,96.28 L51.34,97.49 L51.90,98.72 L52.47,99.96 L53.03,101.22 L53.59,102.49 L54.16,103.78 L54.72,105.07 L55.29,106.38 L55.85,107.70 L56.41,109.03 L56.98,110.37 L57.54,111.72 L58.11,113.08 L58.67,114.44 L59.24,115.81 L59.80,117.19 L60.36,118.58 L60.93,119.97 L61.49,121.37 L62.06,122.77 L62.62,124.17 L63.18,125.58 L63.75,126.98 L64.31,128.39 L64.88,129.80 L65.44,131.21 L66.01,132.62 L66.57,134.03 L67.13,135.44 L67.70,136.84 L68.26,138.24 L68.83,139.64 L69.39,141.03 L69.95,142.42 L70.52,143.80 L71.08,145.18 L71.65,146.54 L72.21,147.90 L72.78,149.26 L73.34,150.60 L73.90,151.93 L74.47,153.25 L75.03,154.56 L75.60,155.86 L76.16,157.15 L76.72,158.43 L77.29,159.69 L77.85,160.94 L78.42,162.17 L78.98,163.39 L79.55,164.59 L80.11,165.77 L80.67,166.94 L81.24,168.10 L81.80,169.23 L82.37,170.34 L82.93,171.44 L83.49,172.52 L84.06,173.57 L84.62,174.61 L85.19,175.63 L85.75,176.62 L86.31,177.59 L86.88,178.54 L87.44,179.47 L88.01,180.37 L88.57,181.25 L89.14,182.11 L89.70,182.94 L90.26,183.74 L90.83,184.52 L91.39,185.28 L91.96,186.01 L92.52,186.71 L93.08,187.38 L93.65,188.03 L94.21,188.66 L94.78,189.25 L95.34,189.82 L95.91,190.35 L96.47,190.86 L97.03,191.34 L97.60,191.80 L98.16,192.22 L98.73,192.61 L99.29,192.98 L99.85,193.31 L100.42,193.61 L100.98,193.89 L101.55,194.13 L102.11,194.35 L102.68,194.53 L103.24,194.69 L103.80,194.81 L104.37,194.90 L104.93,194.96 L105.50,195.00 L106.06,195.00 L106.62,194.97 L107.19,194.91 L107.75,194.82 L108.32,194.69 L108.88,194.54 L109.44,194.36 L110.01,194.15 L110.57,193.91 L111.14,193.63 L111.70,193.33 L112.27,193.00 L112.83,192.64 L113.39,192.24 L113.96,191.82 L114.52,191.37 L115.09,190.89 L115.65,190.39 L116.21,189.85 L116.78,189.29 L117.34,188.69 L117.91,188.08 L118.47,187.43 L119.04,186.75 L119.60,186.05 L120.16,185.33 L120.73,184.57 L121.29,183.79 L121.86,182.99 L122.42,182.16 L122.98,181.31 L123.55,180.43 L124.11,179.53 L124.68,178.60 L125.24,177.65 L125.81,176.68 L126.37,175.69 L126.93,174.68 L127.50,173.64 L128.06,172.59 L128.63,171.51 L129.19,170.42 L129.75,169.30 L130.32,168.17 L130.88,167.02 L131.45,165.85 L132.01,164.67 L132.58,163.47 L133.14,162.25 L133.70,161.02 L134.27,159.77 L134.83,158.51 L135.40,157.24 L135.96,155.95 L136.52,154.65 L137.09,153.34 L137.65,152.02 L138.22,150.69 L138.78,149.34 L139.34,147.99 L139.91,146.63 L140.47,145.27 L141.04,143.89 L141.60,142.51 L142.17,141.12 L142.73,139.73 L143.29,138.34 L143.86,136.93 L144.42,135.53 L144.99,134.12 L145.55,132.72 L146.11,131.31 L146.68,129.90 L147.24,128.49 L147.81,127.08 L148.37,125.67 L148.94,124.26 L149.50,122.86 L150.06,121.46 L150.63,120.06 L151.19,118.67 L151.76,117.29 L152.32,115.91 L152.88,114.53 L153.45,113.17 L154.01,111.81 L154.58,110.46 L155.14,109.12 L155.71,107.79 L156.27,106.47 L156.83,105.16 L157.40,103.86 L157.96,102.58 L158.53,101.30 L159.09,100.04 L159.65,98.80 L160.22,97.57 L160.78,96.36 L161.35,95.16 L161.91,93.97 L162.47,92.81 L163.04,91.66 L163.60,90.53 L164.17,89.42 L164.73,88.33 L165.30,87.26 L165.86,86.20 L166.42,85.17 L166.99,84.16 L167.55,83.17 L168.12,82.20 L168.68,81.26 L169.24,80.34 L169.81,79.44 L170.37,78.57 L170.94,77.72 L171.50,76.89 L172.07,76.09 L172.63,75.31 L173.19,74.57 L173.76,73.84 L174.32,73.14 L174.89,72.47 L175.45,71.83 L176.01,71.22 L176.58,70.63 L177.14,70.07 L177.71,69.54 L178.27,69.03 L178.84,68.56 L179.40,68.11 L179.96,67.70 L180.53,67.31 L181.09,66.95 L181.66,66.62 L182.22,66.32 L182.78,66.06 L183.35,65.82 L183.91,65.61 L184.48,65.43 L185.04,65.29 L185.61,65.17 L186.17,65.08 L186.73,65.03 L187.30,65.00 L187.86,65.01 L188.43,65.04 L188.99,65.11 L189.55,65.21 L190.12,65.33 L190.68,65.49 L191.25,65.68 L191.81,65.90 L192.37,66.15 L192.94,66.43 L193.50,66.74 L194.07,67.08 L194.63,67.44 L195.20,67.84 L195.76,68.27 L196.32,68.73 L196.89,69.21 L197.45,69.72 L198.02,70.27 L198.58,70.84 L199.14,71.43 L199.71,72.06 L200.27,72.71 L200.84,73.39 L201.40,74.10 L201.97,74.83 L202.53,75.59 L203.09,76.38 L203.66,77.19 L204.22,78.02 L204.79,78.88 L205.35,79.76 L205.91,80.67 L206.48,81.60 L207.04,82.55 L207.61,83.53 L208.17,84.52 L208.74,85.54 L209.30,86.58 L209.86,87.64 L210.43,88.72 L210.99,89.82 L211.56,90.94 L212.12,92.07 L212.68,93.23 L213.25,94.40 L213.81,95.59 L214.38,96.79 L214.94,98.01 L215.51,99.25 L216.07,100.50 L216.63,101.76 L217.20,103.04 L217.76,104.33 L218.33,105.63 L218.89,106.94 L219.45,108.27 L220.02,109.60 L220.58,110.94 L221.15,112.30 L221.71,113.66 L222.27,115.03 L222.84,116.40 L223.40,117.78 L223.97,119.17 L224.53,120.57 L225.10,121.96 L225.66,123.36 L226.22,124.77 L226.79,126.18 L227.35,127.58 L227.92,128.99 L228.48,130.40 L229.04,131.81 L229.61,133.22 L230.17,134.63 L230.74,136.04 L231.30,137.44 L231.87,138.84 L232.43,140.23 L232.99,141.62 L233.56,143.01 L234.12,144.39 L234.69,145.76 L235.25,147.12 L235.81,148.48 L236.38,149.83 L236.94,151.17 L237.51,152.50 L238.07,153.81 L238.64,155.12 L239.20,156.41 L239.76,157.70 L240.33,158.97 L240.89,160.22 L241.46,161.46 L242.02,162.69 L242.58,163.90 L243.15,165.10 L243.71,166.28 L244.28,167.44 L244.84,168.58 L245.40,169.71 L245.97,170.81 L246.53,171.90 L247.10,172.97 L247.66,174.02 L248.23,175.05 L248.79,176.05 L249.35,177.04 L249.92,178.00 L250.48,178.94 L251.05,179.85 L251.61,180.75 L252.17,181.62 L252.74,182.46 L253.30,183.28 L253.87,184.08 L254.43,184.85 L255.00,185.59 L255.56,186.31 L256.12,187.00 L256.69,187.66 L257.25,188.30 L257.82,188.91 L258.38,189.49 L258.94,190.05 L259.51,190.57 L260.07,191.07 L260.64,191.54 L261.20,191.98 L261.77,192.39 L262.33,192.77 L262.89,193.12 L263.46,193.44 L264.02,193.74 L264.59,194.00 L265.15,194.23 L265.71,194.43 L266.28,194.60 L266.84,194.74 L267.41,194.85 L267.97,194.93 L268.54,194.98 L269.10,195.00 L269.66,194.99 L270.23,194.95 L270.79,194.87 L271.36,194.77 L271.92,194.63 L272.48,194.47 L273.05,194.27 L273.61,194.05 L274.18,193.79 L274.74,193.51 L275.30,193.19 L275.87,192.85 L276.43,192.47 L277.00,192.07 L277.56,191.64 L278.13,191.17 L278.69,190.68 L279.25,190.16 L279.82,189.61 L280.38,189.04 L280.95,188.43 L281.51,187.80 L282.07,187.14 L282.64,186.46 L283.20,185.75 L283.77,185.01 L284.33,184.24 L284.90,183.45 L285.46,182.64 L286.02,181.80 L286.59,180.94 L287.15,180.05 L287.72,179.14 L288.28,178.20 L288.84,177.24 L289.41,176.26 L289.97,175.26 L290.54,174.24 L291.10,173.20 L291.67,172.13 L292.23,171.05 L292.79,169.94 L293.36,168.82 L293.92,167.68 L294.49,166.52 L295.05,165.35 L295.61,164.16 L296.18,162.95 L296.74,161.73 L297.31,160.49 L297.87,159.24 L298.43,157.97 L299.00,156.69 L299.56,155.40 L300.13,154.09 L300.69,152.78 L301.26,151.45 L301.82,150.11 L302.38,148.77 L302.95,147.41 L303.51,146.05 L304.08,144.68 L304.64,143.30 L305.20,141.92 L305.77,140.53 L306.33,139.14 L306.90,137.74 L307.46,136.34 L308.03,134.93 L308.59,133.52 L309.15,132.12 L309.72,130.71 L310.28,129.29 L310.85,127.88 L311.41,126.48 L311.97,125.07 L312.54,123.66 L313.10,122.26 L313.67,120.86 L314.23,119.47 L314.80,118.08 L315.36,116.70 L315.92,115.32 L316.49,113.95 L317.05,112.59 L317.62,111.23 L318.18,109.89 L318.74,108.55 L319.31,107.22 L319.87,105.91 L320.44,104.60 L321.00,103.31 L321.57,102.03 L322.13,100.76 L322.69,99.51 L323.26,98.27 L323.82,97.05 L324.39,95.84 L324.95,94.65 L325.51,93.48 L326.08,92.32 L326.64,91.18 L327.21,90.06 L327.77,88.95 L328.33,87.87 L328.90,86.80 L329.46,85.76 L330.03,84.74 L330.59,83.74 L331.16,82.76 L331.72,81.80 L332.28,80.86 L332.85,79.95 L333.41,79.06 L333.98,78.20 L334.54,77.36 L335.10,76.55 L335.67,75.76 L336.23,74.99 L336.80,74.25 L337.36,73.54 L337.93,72.86 L338.49,72.20 L339.05,71.57 L339.62,70.96 L340.18,70.39 L340.75,69.84 L341.31,69.32 L341.87,68.83 L342.44,68.36 L343.00,67.93 L343.57,67.53 L344.13,67.15 L344.70,66.81 L345.26,66.49 L345.82,66.21 L346.39,65.95 L346.95,65.73 L347.52,65.53 L348.08,65.37 L348.64,65.23 L349.21,65.13 L349.77,65.05 L350.34,65.01 L350.90,65.00 L351.46,65.02 L352.03,65.07 L352.59,65.15 L353.16,65.26 L353.72,65.40 L354.29,65.57 L354.85,65.77 L355.41,66.00 L355.98,66.26 L356.54,66.56 L357.11,66.88 L357.67,67.23 L358.23,67.61 L358.80,68.02 L359.36,68.46 L359.93,68.93 L360.49,69.43 L361.06,69.95 L361.62,70.51 L362.18,71.09 L362.75,71.70 L363.31,72.34 L363.88,73.00 L364.44,73.69 L365.00,74.41 L365.57,75.15 L366.13,75.92 L366.70,76.72 L367.26,77.54 L367.83,78.38 L368.39,79.25 L368.95,80.15 L369.52,81.06 L370.08,82.00 L370.65,82.96 L371.21,83.95 L371.77,84.95 L372.34,85.98 L372.90,87.03 L373.47,88.10 L374.03,89.19 L374.60,90.29 L375.16,91.42 L375.72,92.56 L376.29,93.72 L376.85,94.90 L377.42,96.10 L377.98,97.31 L378.54,98.54 L379.11,99.78 L379.67,101.03 L380.24,102.30 L380.80,103.59 L381.36,104.88 L381.93,106.19 L382.49,107.50 L383.06,108.83 L383.62,110.17 L384.19,111.52 L384.75,112.88 L385.31,114.24 L385.88,115.61 L386.44,116.99 L387.01,118.38 L387.57,119.77 L388.13,121.16 L388.70,122.56 L389.26,123.96 L389.83,125.37 L390.39,126.78 L390.96,128.19 L391.52,129.60 L392.08,131.01 L392.65,132.42 L393.21,133.82 L393.78,135.23 L394.34,136.64 L394.90,138.04 L395.47,139.43 L396.03,140.83 L396.60,142.22 L397.16,143.60 L397.73,144.97 L398.29,146.34 L398.85,147.70 L399.42,149.06 L399.98,150.40 L400.55,151.73 L401.11,153.06 L401.67,154.37 L402.24,155.67 L402.80,156.96 L403.37,158.24 L403.93,159.50 L404.49,160.75 L405.06,161.99 L405.62,163.21 L406.19,164.41 L406.75,165.60 L407.32,166.77 L407.88,167.93 L408.44,169.06 L409.01,170.18 L409.57,171.28 L410.14,172.36 L410.70,173.42 L411.26,174.46 L411.83,175.48 L412.39,176.47 L412.96,177.45 L413.52,178.40 L414.09,179.33 L414.65,180.24 L415.21,181.12 L415.78,181.98 L416.34,182.81 L416.91,183.62 L417.47,184.41 L418.03,185.17 L418.60,185.90 L419.16,186.61 L419.73,187.29 L420.29,187.94 L420.86,188.57 L421.42,189.16 L421.98,189.73 L422.55,190.28 L423.11,190.79 L423.68,191.27 L424.24,191.73 L424.80,192.16 L425.37,192.56 L425.93,192.92 L426.50,193.26 L427.06,193.57 L427.63,193.85 L428.19,194.10 L428.75,194.32 L429.32,194.51 L429.88,194.67 L430.45,194.79 L431.01,194.89 L431.57,194.96 L432.14,194.99 L432.70,195.00 L433.27,194.97 L433.83,194.92 L434.39,194.83 L434.96,194.71 L435.52,194.57 L436.09,194.39 L436.65,194.18 L437.22,193.94 L437.78,193.68 L438.34,193.38 L438.91,193.05 L439.47,192.69 L440.04,192.30 L440.60,191.89 L441.16,191.44 L441.73,190.97 L442.29,190.46 L442.86,189.93 L443.42,189.37 L443.99,188.78 L444.55,188.17 L445.11,187.53 L445.68,186.86 L446.24,186.16 L446.81,185.43 L447.37,184.69 L447.93,183.91 L448.50,183.11 L449.06,182.28 L449.63,181.43 L450.19,180.56 L450.76,179.66 L451.32,178.74 L451.88,177.80 L452.45,176.83 L453.01,175.84 L453.58,174.83 L454.14,173.80 L454.70,172.74 L455.27,171.67 L455.83,170.58 L456.40,169.47 L456.96,168.34 L457.53,167.19 L458.09,166.03 L458.65,164.84 L459.22,163.64 L459.78,162.43 L460.35,161.20 L460.91,159.96 L461.47,158.70 L462.04,157.42 L462.60,156.14 L463.17,154.84 L463.73,153.53 L464.29,152.21 L464.86,150.88 L465.42,149.54 L465.99,148.19 L466.55,146.83 L467.12,145.47 L467.68,144.09 L468.24,142.71 L468.81,141.33 L469.37,139.94 L469.94,138.54 L470.50,137.14 L471.06,135.74 L471.63,134.33 L472.19,132.92 L472.76,131.51 L473.32,130.10 L473.89,128.69 L474.45,127.28 L475.01,125.88 L475.58,124.47 L476.14,123.07 L476.71,121.66 L477.27,120.27 L477.83,118.88 L478.40,117.49 L478.96,116.11 L479.53,114.73 L480.09,113.37 L480.66,112.01 L481.22,110.66 L481.78,109.31 L482.35,107.98 L482.91,106.66 L483.48,105.35 L484.04,104.05 L484.60,102.76 L485.17,101.49 L485.73,100.23 L486.30,98.98 L486.86,97.75 L487.42,96.53 L487.99,95.33 L488.55,94.15 L489.12,92.98 L489.68,91.83 L490.25,90.70 L490.81,89.58 L491.37,88.49 L491.94,87.41 L492.50,86.36 L493.07,85.32 L493.63,84.31 L494.19,83.32 L494.76,82.35 L495.32,81.40 L495.89,80.47 L496.45,79.57 L497.02,78.69 L497.58,77.84 L498.14,77.01 L498.71,76.21 L499.27,75.43 L499.84,74.67 L500.40,73.95 L500.96,73.25 L501.53,72.57 L502.09,71.92 L502.66,71.31 L503.22,70.71 L503.79,70.15 L504.35,69.61 L504.91,69.11 L505.48,68.63 L506.04,68.18 L506.61,67.76 L507.17,67.36 L507.73,67.00 L508.30,66.67 L508.86,66.37 L509.43,66.09 L509.99,65.85 L510.56,65.64 L511.12,65.46 L511.68,65.31 L512.25,65.18 L512.81,65.09 L513.38,65.03 L513.94,65.00 L514.50,65.00 L515.07,65.04 L515.63,65.10 L516.20,65.19 L516.76,65.31 L517.32,65.47 L517.89,65.65 L518.45,65.87 L519.02,66.11 L519.58,66.39 L520.15,66.69 L520.71,67.02 L521.27,67.39 L521.84,67.78 L522.40,68.20 L522.97,68.66 L523.53,69.14 L524.09,69.65 L524.66,70.18 L525.22,70.75 L525.79,71.34 L526.35,71.97 L526.92,72.62 L527.48,73.29 L528.04,73.99 L528.61,74.72 L529.17,75.48 L529.74,76.26 L530.30,77.06 L530.86,77.89 L531.43,78.75 L531.99,79.63 L532.56,80.53 L533.12,81.46 L533.69,82.41 L534.25,83.38 L534.81,84.37 L535.38,85.39 L535.94,86.43 L536.51,87.48 L537.07,88.56 L537.63,89.66 L538.20,90.77 L538.76,91.90 L539.33,93.06 L539.89,94.23 L540.45,95.41 L541.02,96.61 L541.58,97.83 L542.15,99.06 L542.71,100.31 L543.28,101.57 L543.84,102.85 L544.40,104.14 L544.97,105.44 L545.53,106.75 L546.10,108.07 L546.66,109.40 L547.22,110.74 L547.79,112.10 L548.35,113.46 L548.92,114.82 L549.48,116.20 L550.05,117.58 L550.61,118.97 L551.17,120.36 L551.74,121.76 L552.30,123.16 L552.87,124.56 L553.43,125.97 L553.99,127.38 L554.56,128.79 L555.12,130.20 L555.69,131.61 L556.25,133.02 L556.82,134.42 L557.38,135.83 L557.94,137.23 L558.51,138.63 L559.07,140.03 L559.64,141.42 L560.20,142.81 L560.76,144.19 L561.33,145.56 L561.89,146.92 L562.46,148.28 L563.02,149.63 L563.59,150.97 L564.15,152.30 L564.71,153.62 L565.28,154.93 L565.84,156.22 L566.41,157.51 L566.97,158.78 L567.53,160.04 L568.10,161.28 L568.66,162.51 L569.23,163.72 L569.79,164.92 L570.35,166.10 L570.92,167.27 L571.48,168.41 L572.05,169.54 L572.61,170.65 L573.18,171.74 L573.74,172.81 L574.30,173.87 L574.87,174.90 L575.43,175.90 L576.00,176.89 L576.56,177.86 L577.12,178.80 L577.69,179.72 L578.25,180.62 L578.82,181.49 L579.38,182.34 L579.95,183.16 L580.51,183.96 L581.07,184.74 L581.64,185.48 L582.20,186.20 L582.77,186.90 L583.33,187.57 L583.89,188.21 L584.46,188.82 L585.02,189.41 L585.59,189.97 L586.15,190.50 L586.72,191.00 L587.28,191.47 L587.84,191.92 L588.41,192.33 L588.97,192.72 L589.54,193.07 L590.10,193.40 L590.66,193.69 L591.23,193.96 L591.79,194.20 L592.36,194.40 L592.92,194.58 L593.48,194.72 L594.05,194.84 L594.61,194.92 L595.18,194.98 L595.74,195.00 L596.31,194.99 L596.87,194.95 L597.43,194.88 L598.00,194.79 L598.56,194.66 L599.13,194.50 L599.69,194.30 L600.25,194.08 L600.82,193.83 L601.38,193.55 L601.95,193.24 L602.51,192.90 L603.08,192.53 L603.64,192.13 L604.20,191.70 L604.77,191.24 L605.33,190.76 L605.90,190.24 L606.46,189.70 L607.02,189.12 L607.59,188.52 L608.15,187.90 L608.72,187.24 L609.28,186.56 L609.85,185.85 L610.41,185.12 L610.97,184.36 L611.54,183.57 L612.10,182.76 L612.67,181.92 L613.23,181.06 L613.79,180.18 L614.36,179.27 L614.92,178.34 L615.49,177.39 L616.05,176.41 L616.62,175.41 L617.18,174.39 L617.74,173.35 L618.31,172.29 L618.87,171.21 L619.44,170.11 L620.00,168.99" style="stroke-width: 2; stroke: rgb(140, 20, 255); stroke-opacity: 0.8;"/></g></g><g class="test-xtl" style="font-family: &quot;Open Sans&quot;, verdana, arial, sans-serif;"><text text-anchor="middle" font-size="11" dominant-baseline="hanging" stroke="none" fill="rgb(50,50,50)" fill-opacity="1" x="46.86499999999997" y="137">-20</text><text text-anchor="middle" font-size="11" dominant-baseline="hanging" stroke="none" fill="rgb(50,50,50)" fill-opacity="1" x="111.86499999999998" y="137">-15</text><text text-anchor="middle" font-size="11" dominant-baseline="hanging" stroke="none" fill="rgb(50,50,50)" fill-opacity="1" x="176.86499999999998" y="137">-10</text><text text-anchor="middle" font-size="11" dominant-baseline="hanging" stroke="none" fill="rgb(50,50,50)" fill-opacity="1" x="241.865" y="137">-5</text><text text-anchor="middle" font-size="11" dominant-baseline="hanging" stroke="none" fill="rgb(50,50,50)" fill-opacity="1" x="375" y="137">5</text><text text-anchor="middle" font-size="11" dominant-baseline="hanging" stroke="none" fill="rgb(50,50,50)" fill-opacity="1" x="439.99999999999994" y="137">10</text><text text-anchor="middle" font-size="11" dominant-baseline="hanging" stroke="none" fill="rgb(50,50,50)" fill-opacity="1" x="504.99999999999994" y="137">15</text><text text-anchor="middle" font-size="11" dominant-baseline="hanging" stroke="none" fill="rgb(50,50,50)" fill-opacity="1" x="570" y="137">20</text><text text-anchor="middle" font-size="11" dominant-baseline="hanging" stroke="none" fill="rgb(50,50,50)" fill-opacity="1" x="302" y="135">0</text></g><g class="test-ytl" style="font-family: &quot;Open Sans&quot;, verdana, arial, sans-serif;"><text text-anchor="end" dominant-baseline="middle" font-size="11" stroke="none" fill="rgb(50,50,50)" fill-opacity="1" x="302" y="260">-10</text><text text-anchor="end" dominant-baseline="middle" font-size="11" stroke="none" fill="rgb(50,50,50)" fill-opacity="1" x="302" y="195">-5</text><text text-anchor="end" dominant-baseline="middle" font-size="11" stroke="none" fill="rgb(50,50,50)" fill-opacity="1" x="302" y="65">5</text></g><rect class="real" x="1" y="1" width="618" height="268" style="fill: transparent; stroke: none;"/></g></g></g><g/></g><g/><g/><g/></svg>
        <svg xmlns="http://www.w3.org/2000/svg" xmlns:xlink="http://www.w3.org/1999/xlink" width="700" height="310" style="width:700px;height:310px;font-family:Asana-Math, Asana;background:transparent;"></svg>
</svg>
